<?xml version="1.0" encoding="UTF-8" standalone="no"?>
<!DOCTYPE svg PUBLIC "-//W3C//DTD SVG 1.1//EN" "http://www.w3.org/Graphics/SVG/1.1/DTD/svg11.dtd">
<svg xmlns="http://www.w3.org/2000/svg" xmlns:xlink="http://www.w3.org/1999/xlink" version="1.1" width="595.276pt" height="595.276pt" viewBox="0 0 595.276 595.276">
<g enable-background="new">
<g id="Layer-1" data-name="símbolo preto">
<clipPath id="cp0">
<path transform="matrix(1,0,0,-1,0,595.276)" d="M 0 595.276 L 595.276 595.276 L 595.276 0 L 0 0 Z "/>
</clipPath>
<g clip-path="url(#cp0)">
</g>
<g id="Layer-1" data-name="símbolo branco">
</g>
<clipPath id="cp1">
<path transform="matrix(1,0,0,-1,0,595.276)" d="M 0 595.276 L 595.276 595.276 L 595.276 0 L 0 0 Z "/>
</clipPath>
<g clip-path="url(#cp1)">
</g>
<g id="Layer-1" data-name="símbolo azul">
</g>
<clipPath id="cp2">
<path transform="matrix(1,0,0,-1,0,595.276)" d="M 0 595.276 L 595.276 595.276 L 595.276 0 L 0 0 Z "/>
</clipPath>
<g clip-path="url(#cp2)">
<path transform="matrix(1,0,0,-1,330.4419,132.224)" d="M 0 0 C -.562 .281 -.74 .397 -.936 .463 C -11.351 3.969 -21.77 7.462 -32.178 10.987 C -32.886 11.227 -33.485 11.138 -34.146 10.914 C -44.207 7.504 -54.272 4.107 -64.332 .697 C -64.8 .538 -65.375 .543 -65.675 .019 C -65.315 -.438 -64.793 -.567 -64.322 -.768 C -54.358 -5.028 -44.388 -9.272 -34.434 -13.551 C -33.38 -14.004 -32.476 -13.943 -31.437 -13.495 C -23.648 -10.134 -15.838 -6.825 -8.039 -3.491 C -5.453 -2.385 -2.881 -1.252 0 0 M -26.631 -16.547 C -26.326 -17.122 -25.877 -17.196 -25.508 -17.354 C -10.681 -23.684 4.157 -29.988 18.97 -36.351 C 20.13 -36.849 20.974 -36.747 22.003 -36.096 C 29.04 -31.65 36.111 -27.259 43.166 -22.843 C 45.981 -21.081 48.784 -19.3 51.755 -17.425 C 51.344 -17.219 51.173 -17.106 50.985 -17.042 C 36.41 -12.124 21.834 -7.213 7.262 -2.286 C 6.461 -2.015 5.775 -2.102 5.013 -2.457 C 2.642 -3.562 .235 -4.592 -2.155 -5.656 C -10.281 -9.271 -18.407 -12.888 -26.631 -16.547 M -117.86 -17.394 C -117.298 -17.769 -117.087 -17.918 -116.868 -18.055 C -107.276 -24.04 -97.668 -30.002 -88.106 -36.035 C -86.899 -36.796 -85.916 -36.845 -84.636 -36.292 C -72.194 -30.919 -59.729 -25.599 -47.271 -20.261 C -44.642 -19.134 -42.018 -17.995 -39.417 -16.873 C -39.545 -16.318 -39.929 -16.314 -40.189 -16.198 C -50.515 -11.593 -60.85 -7.01 -71.169 -2.393 C -72.022 -2.011 -72.752 -2.132 -73.573 -2.411 C -85.711 -6.528 -97.855 -10.627 -109.998 -14.731 C -112.513 -15.581 -115.027 -16.434 -117.86 -17.394 M 14.705 -40.617 C 14.022 -40.29 13.657 -40.105 13.284 -39.939 C -1.36 -33.437 -16.021 -26.969 -30.632 -20.393 C -32.337 -19.626 -33.675 -19.652 -35.347 -20.405 C -48.521 -26.342 -61.736 -32.189 -74.937 -38.066 C -76.768 -38.881 -78.592 -39.71 -80.574 -40.602 C -80.191 -40.892 -80.038 -41.029 -79.865 -41.137 C -64.679 -50.626 -49.486 -60.106 -34.313 -69.618 C -33.272 -70.27 -32.51 -70.171 -31.484 -69.525 C -20.14 -62.387 -8.757 -55.307 2.611 -48.205 C 6.557 -45.741 10.492 -43.261 14.705 -40.617 M -93.19 -39.55 C -96.5 -37.393 -99.868 -35.202 -103.231 -33.006 C -109.637 -28.826 -116.055 -24.664 -122.431 -20.44 C -123.545 -19.702 -124.503 -19.602 -125.778 -20.037 C -138.711 -24.447 -151.669 -28.785 -164.614 -33.16 C -165.952 -33.612 -167.237 -34.219 -168.576 -34.667 C -169.731 -35.054 -169.92 -35.815 -169.705 -36.875 C -168.831 -41.177 -167.977 -45.482 -167.113 -49.786 C -167.072 -49.991 -166.972 -50.194 -166.976 -50.396 C -166.989 -51.087 -166.437 -51.961 -167.282 -52.412 C -168.212 -52.908 -168.668 -52.005 -169.197 -51.463 C -169.526 -51.126 -169.769 -50.685 -170.139 -50.41 C -173.71 -47.762 -174.887 -43.965 -175.405 -39.791 C -175.665 -37.699 -175.781 -37.688 -177.669 -38.615 C -188.595 -43.977 -198.425 -50.854 -206.567 -59.954 C -210.098 -63.9 -213.243 -68.173 -215.361 -73.089 C -216.053 -74.695 -217.255 -75.593 -218.916 -75.825 C -221.423 -76.174 -222.895 -74.179 -221.879 -71.818 C -220.169 -67.847 -217.803 -64.274 -215.154 -60.872 C -205.466 -48.426 -192.928 -39.707 -178.768 -33.144 C -177.283 -32.456 -176.957 -31.741 -177.305 -30.207 C -178.324 -25.724 -179.191 -21.207 -180.103 -16.7 C -180.222 -16.112 -180.548 -15.4 -179.755 -15.039 C -179.074 -14.728 -178.576 -15.182 -178.095 -15.622 C -177.091 -16.54 -176.149 -17.561 -175.029 -18.312 C -173.18 -19.552 -172.639 -21.381 -172.295 -23.383 C -171.994 -25.134 -171.652 -26.877 -171.305 -28.619 C -171.167 -29.312 -171.054 -29.92 -169.995 -29.545 C -156.772 -24.854 -143.338 -20.803 -130.03 -16.368 C -129.839 -16.304 -129.666 -16.185 -129.309 -16.002 C -132.293 -14.051 -135.166 -12.17 -138.041 -10.293 C -140.191 -8.889 -142.353 -7.504 -144.488 -6.079 C -145.209 -5.598 -145.629 -5.502 -145.553 -6.589 C -145.467 -7.814 -146.182 -8.37 -147.259 -8.677 C -150.378 -9.569 -153.483 -10.513 -156.606 -11.392 C -158.559 -11.941 -159.184 -11.56 -159.543 -9.563 C -160.332 -5.192 -161.071 -.813 -161.828 3.563 C -162.3 6.29 -162.713 9.029 -163.263 11.741 C -163.562 13.22 -162.93 13.962 -161.632 14.268 C -158.324 15.046 -155.009 15.798 -151.685 16.507 C -149.725 16.925 -149.078 16.37 -148.73 14.132 C -148.09 10.003 -147.418 5.879 -146.85 1.741 C -146.726 .835 -146.305 .337 -145.605 -.099 C -138.493 -4.536 -131.374 -8.96 -124.291 -13.445 C -123.175 -14.152 -122.214 -13.83 -121.164 -13.487 C -108.621 -9.399 -96.077 -5.314 -83.532 -1.229 C -81.85 -.682 -80.165 -.14 -78.536 .387 C -78.438 .996 -78.884 .989 -79.109 1.09 C -85.706 4.043 -92.319 6.959 -98.91 9.926 C -100.059 10.443 -100.282 10.046 -100.225 8.982 C -100.018 5.098 -100.028 5.098 -103.744 3.995 C -105.35 3.519 -106.942 2.995 -108.563 2.578 C -110.129 2.175 -110.682 2.583 -110.862 4.185 C -111.588 10.621 -112.299 17.058 -113.012 23.495 C -113.136 24.619 -112.57 25.34 -111.537 25.591 C -108.894 26.233 -106.236 26.813 -103.579 27.392 C -102.47 27.633 -101.871 27.085 -101.761 26.008 C -101.447 22.942 -101.057 19.88 -100.903 16.806 C -100.829 15.328 -100.299 14.557 -98.955 13.991 C -90.41 10.396 -81.893 6.735 -73.369 3.088 C -72.576 2.749 -71.803 2.564 -70.937 2.848 C -60.54 6.25 -50.139 9.638 -39.739 13.032 C -39.643 13.064 -39.556 13.128 -39.263 13.287 C -40.338 13.688 -41.268 14.066 -42.216 14.385 C -48.864 16.623 -55.526 18.82 -62.158 21.104 C -63.447 21.547 -63.754 21.342 -63.76 19.961 C -63.777 15.119 -62.854 15.869 -68.033 14.376 C -68.938 14.115 -69.834 13.82 -70.746 13.583 C -71.733 13.328 -72.303 13.641 -72.524 14.738 C -73.026 17.227 -72.734 19.751 -72.992 22.258 C -73.339 25.635 -73.262 29.054 -73.419 32.453 C -73.478 33.735 -72.964 34.373 -71.698 34.604 C -69.899 34.932 -68.127 35.401 -66.335 35.772 C -64.919 36.065 -64.428 35.659 -64.362 34.198 C -64.247 31.636 -64.101 29.074 -64.062 26.51 C -64.047 25.554 -63.675 25.101 -62.804 24.82 C -53.19 21.721 -43.581 18.604 -33.976 15.476 C -33.283 15.25 -32.657 15.318 -31.987 15.537 C -22.681 18.576 -13.376 21.618 -4.056 24.611 C -2.963 24.962 -2.551 25.531 -2.586 26.652 C -2.665 29.166 -2.553 31.675 -2.314 34.185 C -2.194 35.441 -1.688 35.9 -.507 35.645 C 1.333 35.248 3.166 34.814 5.005 34.41 C 6.275 34.131 6.853 33.398 6.774 32.064 C 6.434 26.214 6.13 20.363 5.809 14.512 C 5.748 13.409 5.145 13.024 4.111 13.316 C 2.198 13.856 .301 14.455 -1.62 14.963 C -2.842 15.287 -3.136 16.102 -3.062 17.214 C -2.999 18.153 -2.992 19.097 -2.909 20.035 C -2.782 21.477 -3.575 21.251 -4.466 20.949 C -10.664 18.845 -16.864 16.75 -23.063 14.65 C -24.247 14.249 -25.427 13.834 -27.019 13.285 C -25.106 12.628 -23.565 12.074 -22.009 11.569 C -13.245 8.728 -4.476 5.903 4.287 3.059 C 5.26 2.743 6.16 2.6 7.173 3.038 C 15.49 6.628 23.814 10.203 32.167 13.71 C 33.449 14.249 34.08 15.022 34.18 16.357 C 34.39 19.171 34.661 21.981 34.84 24.797 C 34.976 26.918 35.507 27.401 37.562 26.958 C 39.965 26.44 42.359 25.889 44.755 25.336 C 45.898 25.072 46.372 24.4 46.237 23.167 C 45.532 16.729 44.859 10.288 44.226 3.843 C 44.09 2.461 43.356 1.901 42.136 2.217 C 39.502 2.899 36.902 3.709 34.299 4.504 C 33.645 4.704 33.278 5.208 33.287 5.935 C 33.295 6.512 33.335 7.094 33.271 7.664 C 33.184 8.444 34.001 9.506 33.368 9.867 C 32.661 10.272 31.749 9.423 30.952 9.071 C 24.776 6.342 18.611 3.587 12.432 .836 C 12.606 .071 13.256 .163 13.691 .021 C 27.578 -4.502 41.477 -8.99 55.357 -13.533 C 56.619 -13.946 57.585 -13.84 58.718 -13.121 C 65.438 -8.852 72.207 -4.659 78.966 -.451 C 79.672 -.012 80.08 .502 80.205 1.397 C 80.78 5.535 81.452 9.659 82.089 13.789 C 82.454 16.162 83.147 16.635 85.496 16.103 C 88.556 15.41 91.617 14.725 94.674 14.015 C 96.54 13.582 96.892 12.983 96.567 11.131 C 95.366 4.288 94.173 -2.557 93.003 -9.406 C 92.56 -11.999 91.959 -12.398 89.4 -11.646 C 86.789 -10.878 84.177 -10.116 81.565 -9.346 C 78.954 -8.576 78.955 -8.573 78.862 -5.785 C 73.721 -9.15 68.657 -12.463 63.604 -15.77 C 63.828 -16.362 64.28 -16.379 64.664 -16.504 C 77.063 -20.525 89.467 -24.529 101.851 -28.594 C 103.153 -29.022 103.609 -28.763 103.792 -27.429 C 104.047 -25.568 104.492 -23.734 104.823 -21.883 C 105.082 -20.437 105.688 -19.237 106.866 -18.294 C 108.173 -17.247 109.385 -16.082 110.666 -15.003 C 111.044 -14.685 111.435 -14.258 112.058 -14.58 C 112.688 -14.905 112.576 -15.481 112.491 -15.958 C 112.06 -18.374 111.58 -20.782 111.099 -23.189 C 110.639 -25.495 110.167 -27.797 109.676 -30.096 C 109.479 -31.022 109.629 -31.55 110.648 -32.012 C 120.72 -36.579 130.136 -42.237 138.411 -49.605 C 145.457 -55.879 151.503 -63.019 155.934 -71.426 C 156.549 -72.594 157.005 -73.76 156.029 -74.923 C 154.945 -76.214 153.509 -76.037 152.116 -75.631 C 151.002 -75.307 150.294 -74.444 149.761 -73.44 C 142.907 -60.529 132.586 -51.019 120.327 -43.391 C 116.853 -41.229 113.246 -39.321 109.589 -37.499 C 108.705 -37.059 108.161 -36.935 108.053 -38.221 C 107.961 -39.307 107.513 -40.367 107.453 -41.452 C 107.198 -46.086 103.71 -48.615 100.95 -51.624 C 100.633 -51.97 100.221 -52.05 99.796 -51.904 C 99.199 -51.698 99.257 -51.169 99.337 -50.713 C 99.8 -48.09 100.277 -45.469 100.773 -42.852 C 101.212 -40.542 101.667 -38.234 102.141 -35.93 C 102.369 -34.818 101.997 -34.183 100.886 -33.811 C 86.989 -29.159 73.101 -24.483 59.217 -19.793 C 58.457 -19.537 57.808 -19.543 57.134 -19.985 C 47.189 -26.501 37.24 -33.01 27.295 -39.524 C 27.265 -39.544 27.271 -39.621 27.223 -39.836 C 29.579 -40.85 31.964 -41.885 34.355 -42.905 C 45.675 -47.735 56.994 -52.566 68.32 -57.382 C 70.024 -58.107 70.048 -58.071 70.354 -56.23 C 70.492 -55.407 70.685 -54.577 70.692 -53.749 C 70.725 -50.263 72.326 -47.734 75.134 -45.749 C 76.75 -44.606 78.134 -43.139 79.652 -41.852 C 80.147 -41.433 80.626 -40.877 81.449 -41.3 C 82.28 -41.728 82.108 -42.401 82.001 -43.066 C 81.208 -47.963 80.474 -52.871 79.585 -57.75 C 78.754 -62.313 78.661 -62.333 82.708 -64.702 C 90.458 -69.24 97.807 -74.369 104.556 -80.27 C 115.929 -90.213 125.618 -101.562 132.474 -115.146 C 132.971 -116.132 133.471 -117.117 133.142 -118.285 C 132.46 -120.701 129.334 -121.399 127.038 -119.616 C 126.292 -119.036 125.671 -118.331 125.231 -117.468 C 119.464 -106.141 111.721 -96.356 102.407 -87.716 C 95.228 -81.056 87.417 -75.304 79.091 -70.194 C 77.979 -69.512 77.544 -69.661 77.41 -70.921 C 77.351 -71.492 77.175 -72.056 77.162 -72.625 C 77.08 -76.301 75.208 -79.003 72.611 -81.395 C 70.995 -82.884 69.549 -84.557 68.015 -86.136 C 67.617 -86.546 67.23 -86.998 66.533 -86.593 C 65.917 -86.235 65.86 -85.725 65.949 -85.114 C 66.532 -81.134 67.099 -77.152 67.693 -73.174 C 68.041 -70.851 68.426 -68.533 68.809 -66.215 C 68.984 -65.145 68.646 -64.488 67.583 -64.021 C 56.94 -59.336 46.317 -54.607 35.691 -49.888 C 31.383 -47.975 27.065 -46.082 22.782 -44.116 C 21.726 -43.631 20.9 -43.615 19.89 -44.279 C 5.006 -54.056 -9.904 -63.794 -24.805 -73.547 C -26.314 -74.535 -26.304 -74.547 -24.798 -75.488 C -11.604 -83.732 1.589 -91.977 14.782 -100.222 C 15.137 -100.444 15.501 -100.652 15.848 -100.887 C 16.682 -101.453 16.923 -101.136 16.919 -100.244 C 16.905 -97.063 18.39 -94.779 20.874 -92.809 C 24.481 -89.948 27.856 -86.794 31.327 -83.763 C 32.031 -83.148 32.641 -82.367 33.771 -83.003 C 34.895 -83.636 34.713 -84.554 34.597 -85.592 C 34.091 -90.108 33.668 -94.634 33.193 -99.154 C 32.822 -102.686 32.457 -106.219 32.011 -109.742 C 31.845 -111.054 32.071 -112.027 33.195 -112.882 C 42.642 -120.075 51.367 -128.093 59.454 -136.757 C 73.29 -151.581 85.074 -167.872 93.774 -186.274 C 94.451 -187.706 94.96 -189.154 94.621 -190.806 C 94.059 -193.546 91.879 -194.831 89.232 -193.893 C 87.342 -193.223 86.083 -191.881 85.249 -190.099 C 81.868 -182.877 77.955 -175.948 73.578 -169.29 C 69.002 -162.329 64.003 -155.686 58.597 -149.333 C 54.722 -144.778 50.682 -140.379 46.475 -136.148 C 41.823 -131.47 36.996 -126.958 31.848 -122.813 C 31.58 -122.599 31.329 -122.269 30.746 -122.406 C 30.815 -125.425 28.856 -127.41 26.917 -129.411 C 23.562 -132.874 20.222 -136.354 16.846 -139.798 C 16.346 -140.308 15.903 -141.222 14.91 -140.608 C 14.077 -140.093 13.802 -139.399 13.898 -138.356 C 14.333 -133.672 14.65 -128.978 15.026 -124.288 C 15.299 -120.902 15.535 -117.513 15.905 -114.138 C 16.13 -112.083 15.896 -110.617 13.852 -109.303 C -1.395 -99.503 -16.542 -89.551 -31.706 -79.625 C -32.563 -79.065 -33.213 -79.017 -34.11 -79.605 C -49.748 -89.859 -65.414 -100.069 -81.058 -110.313 C -84.377 -112.486 -84.301 -112.525 -83.849 -117.45 C -83.28 -123.641 -82.824 -129.841 -82.263 -136.032 C -82.13 -137.493 -81.947 -138.941 -81.968 -140.414 C -81.979 -141.206 -82.327 -141.69 -82.979 -142.035 C -83.708 -142.42 -84.179 -141.964 -84.615 -141.501 C -88.641 -137.23 -92.677 -132.967 -96.668 -128.663 C -97.864 -127.372 -98.629 -125.829 -98.627 -123.885 C -99.469 -124.064 -99.993 -124.558 -100.513 -125.022 C -107.005 -130.815 -113.401 -136.708 -119.284 -143.133 C -130.008 -154.846 -139.485 -167.458 -146.949 -181.514 C -148.175 -183.822 -149.208 -186.236 -150.254 -188.636 C -150.894 -190.1 -151.68 -191.419 -152.903 -192.472 C -154.524 -193.867 -156.8 -194.238 -158.287 -193.309 C -159.862 -192.323 -160.602 -190.251 -160.117 -188.172 C -159.758 -186.632 -159.103 -185.199 -158.44 -183.778 C -152.605 -171.273 -144.99 -159.907 -136.389 -149.154 C -129.859 -140.989 -122.623 -133.485 -115.031 -126.335 C -110.73 -122.285 -106.284 -118.359 -101.52 -114.837 C -100.267 -113.911 -99.76 -113.009 -100.014 -111.299 C -100.666 -106.912 -100.957 -102.471 -101.426 -98.055 C -101.78 -94.732 -102.195 -91.416 -102.562 -88.095 C -102.643 -87.368 -102.633 -86.632 -102.673 -85.901 C -102.718 -85.064 -102.586 -84.348 -101.677 -83.982 C -100.84 -83.645 -100.274 -84.059 -99.706 -84.56 C -97.978 -86.083 -96.24 -87.597 -94.518 -89.127 C -92.364 -91.041 -90.276 -93.032 -88.06 -94.869 C -86.051 -96.535 -85.107 -98.59 -85.114 -101.166 C -85.117 -102.771 -84.874 -102.891 -83.522 -102.045 C -69.311 -93.159 -55.108 -84.256 -40.88 -75.395 C -39.72 -74.671 -39.813 -74.342 -40.89 -73.642 C -55.908 -63.878 -70.91 -54.089 -85.893 -44.271 C -86.79 -43.684 -87.498 -43.629 -88.469 -44.064 C -103.239 -50.679 -118.025 -57.256 -132.806 -63.848 C -133.283 -64.061 -133.738 -64.325 -134.201 -64.569 C -136.881 -65.984 -136.848 -65.979 -136.361 -68.942 C -135.438 -74.56 -134.558 -80.185 -133.656 -85.806 C -133.549 -86.475 -133.594 -87.074 -134.31 -87.395 C -134.938 -87.677 -135.416 -87.419 -135.846 -86.96 C -138.284 -84.361 -140.766 -81.8 -143.152 -79.154 C -144.447 -77.717 -144.505 -75.777 -144.799 -73.989 C -145.386 -70.421 -145.351 -70.386 -148.417 -72.311 C -158.678 -78.75 -168.028 -86.322 -176.147 -95.31 C -182.097 -101.895 -187.33 -109.029 -190.87 -117.264 C -191.694 -119.183 -193.285 -120.137 -195.249 -120.436 C -197.833 -120.831 -199.465 -118.217 -198.337 -115.441 C -196.633 -111.251 -194.302 -107.391 -191.793 -103.646 C -187.344 -97.004 -182.132 -90.965 -176.382 -85.448 C -168.116 -77.518 -158.97 -70.698 -149.012 -64.994 C -146.647 -63.639 -146.439 -64.048 -147.01 -60.876 C -147.991 -55.427 -148.877 -49.959 -149.79 -44.498 C -149.867 -44.037 -149.89 -43.556 -149.858 -43.089 C -149.779 -41.916 -148.951 -41.396 -148.082 -42.117 C -145.262 -44.456 -142.291 -46.673 -139.942 -49.49 C -138.454 -51.274 -138.752 -53.771 -138.34 -55.959 C -137.652 -59.606 -138.312 -59.291 -134.943 -57.827 C -125.051 -53.527 -115.123 -49.309 -105.209 -45.059 C -101.407 -43.429 -97.604 -41.8 -93.802 -40.168 C -93.571 -40.069 -93.283 -40.036 -93.19 -39.55 " fill="#13aab6"/>
<path transform="matrix(1,0,0,-1,267.001,132.28119)" d="M 0 0 L 8.949 -3.823 C 15.769 -6.735 22.589 -9.646 29.402 -12.575 C 30.151 -12.898 30.769 -12.881 31.608 -12.52 C 36.803 -10.278 42.009 -8.059 47.214 -5.84 L 55.008 -2.514 C 56.761 -1.765 58.507 -1.003 60.348 -.2 L 60.854 .021 L 53.655 2.442 C 46.083 4.988 38.509 7.535 30.942 10.097 C 30.531 10.237 30.185 10.217 29.616 10.024 L 15.1 5.111 C 10.066 3.408 5.033 1.706 0 0 M 30.413 -14.808 C 29.814 -14.808 29.225 -14.676 28.612 -14.413 C 21.801 -11.485 14.982 -8.573 8.164 -5.662 L -1.518 -1.533 C -1.958 -1.361 -2.56 -1.126 -3.02 -.543 L -3.438 -.013 L -3.102 .573 C -2.66 1.345 -1.92 1.523 -1.478 1.63 C -1.388 1.652 -1.297 1.672 -1.212 1.701 C 4.011 3.472 9.235 5.239 14.459 7.005 L 28.974 11.918 C 29.631 12.141 30.522 12.351 31.583 11.992 C 39.15 9.429 46.721 6.884 54.292 4.338 L 62.825 1.468 C 62.984 1.415 63.137 1.341 63.401 1.202 C 63.523 1.138 63.677 1.057 63.887 .952 L 65.805 -.005 L 61.148 -2.033 C 59.303 -2.838 57.552 -3.602 55.795 -4.353 L 47.999 -7.68 C 42.796 -9.897 37.593 -12.115 32.401 -14.355 C 31.702 -14.658 31.052 -14.808 30.413 -14.808 M -52.142 -17.621 L -45.793 -21.579 C -38.685 -26.007 -31.336 -30.587 -24.131 -35.132 C -23.229 -35.701 -22.587 -35.748 -21.591 -35.317 C -12.318 -31.312 -3.031 -27.337 6.255 -23.361 L 15.775 -19.285 C 17.586 -18.509 19.394 -17.728 21.193 -16.95 L 21.912 -16.639 C 18.149 -14.961 14.384 -13.286 10.62 -11.61 C 4.366 -8.827 -1.888 -6.044 -8.136 -3.248 C -8.627 -3.028 -9.05 -3.042 -9.81 -3.3 C -19.382 -6.547 -28.957 -9.782 -38.531 -13.018 Z M -22.769 -37.608 C -23.584 -37.608 -24.366 -37.349 -25.199 -36.823 C -32.398 -32.281 -39.745 -27.704 -46.851 -23.276 L -53.957 -18.846 C -54.102 -18.756 -54.243 -18.661 -54.474 -18.505 L -56.663 -17.041 L -39.171 -11.123 C -29.597 -7.888 -20.023 -4.653 -10.453 -1.407 C -9.582 -1.11 -8.529 -.88 -7.319 -1.423 C -1.073 -4.218 5.18 -7 11.433 -9.783 C 15.509 -11.597 19.584 -13.411 23.659 -15.228 C 24.014 -15.346 24.769 -15.596 24.999 -16.59 L 25.187 -17.403 L 21.987 -18.785 C 20.186 -19.564 18.375 -20.347 16.563 -21.123 L 7.042 -25.2 C -2.242 -29.174 -11.527 -33.149 -20.798 -37.153 C -21.499 -37.455 -22.143 -37.608 -22.769 -37.608 M 38.937 -16.638 L 51.976 -22.199 C 62.257 -26.582 72.538 -30.964 82.805 -35.375 C 83.635 -35.731 84.126 -35.689 84.91 -35.194 C 89.698 -32.169 94.5 -29.169 99.304 -26.17 L 106.077 -21.938 C 107.992 -20.739 109.902 -19.532 111.862 -18.292 L 113.013 -17.564 L 100.765 -13.432 C 90.637 -10.016 80.508 -6.6 70.382 -3.176 C 69.873 -3.004 69.451 -3.039 68.875 -3.307 C 67.227 -4.074 65.561 -4.807 63.896 -5.54 C 63.161 -5.863 62.425 -6.186 61.692 -6.512 Z M 83.751 -37.609 C 83.198 -37.609 82.63 -37.476 82.016 -37.212 C 71.75 -32.802 61.471 -28.42 51.192 -24.039 L 37.388 -18.157 C 37.002 -18.013 36.357 -17.771 35.926 -16.958 L 35.424 -16.012 L 60.879 -4.685 C 61.616 -4.357 62.353 -4.033 63.09 -3.708 C 64.743 -2.982 66.396 -2.255 68.032 -1.494 C 69.07 -1.009 70.02 -.942 71.023 -1.281 C 81.149 -4.705 91.277 -8.121 101.405 -11.537 L 114.746 -16.038 C 114.909 -16.093 115.064 -16.169 115.294 -16.292 L 117.226 -17.269 L 112.931 -19.982 C 110.967 -21.224 109.055 -22.433 107.137 -23.633 L 100.364 -27.867 C 95.563 -30.864 90.762 -33.862 85.978 -36.884 C 85.21 -37.37 84.494 -37.609 83.751 -37.609 M -15.103 -40.726 L -5.082 -46.987 C 6.502 -54.223 18.086 -61.459 29.659 -68.713 C 30.267 -69.095 30.608 -69.136 31.424 -68.622 C 39.704 -63.412 48.004 -58.233 56.304 -53.054 L 65.522 -47.3 C 68.272 -45.582 71.017 -43.857 73.855 -42.074 L 76.068 -40.684 L 65.766 -36.115 C 54.821 -31.263 43.503 -26.246 32.399 -21.248 C 30.987 -20.613 29.933 -20.616 28.505 -21.26 C 18.627 -25.711 8.562 -30.185 -1.172 -34.512 L -11.089 -38.922 C -12.323 -39.471 -13.553 -40.027 -14.831 -40.604 Z M 30.439 -71.005 C 29.83 -71.005 29.231 -70.805 28.597 -70.408 C 17.025 -63.154 5.442 -55.918 -6.141 -48.683 L -16.954 -41.928 C -17.088 -41.844 -17.214 -41.748 -17.404 -41.599 L -19.079 -40.324 L -15.654 -38.781 C -14.373 -38.203 -13.139 -37.646 -11.903 -37.095 L -1.985 -32.685 C 7.747 -28.358 17.81 -23.886 27.684 -19.437 C 29.632 -18.559 31.289 -18.555 33.219 -19.424 C 44.319 -24.419 55.634 -29.436 66.577 -34.287 L 77.131 -38.968 C 77.383 -39.08 77.631 -39.2 77.968 -39.364 L 80.215 -40.441 L 74.919 -43.768 C 72.08 -45.552 69.333 -47.277 66.582 -48.996 L 57.363 -54.75 C 49.065 -59.928 40.767 -65.106 32.489 -70.314 C 31.757 -70.775 31.092 -71.005 30.439 -71.005 M -104.299 -51.506 C -104.297 -51.508 -104.294 -51.509 -104.292 -51.51 C -104.294 -51.508 -104.297 -51.507 -104.299 -51.506 M 80.067 -100.128 Z M 94.452 -121.315 C 95.156 -121.315 95.596 -121.7 95.83 -121.904 L 95.915 -121.977 C 100.56 -125.717 105.372 -130.103 110.625 -135.386 C 114.801 -139.585 118.897 -144.041 122.799 -148.627 C 128.256 -155.041 133.322 -161.789 137.855 -168.683 C 142.329 -175.489 146.279 -182.532 149.595 -189.618 C 150.375 -191.285 151.492 -192.356 153.007 -192.893 C 154.005 -193.246 154.913 -193.22 155.628 -192.818 C 156.36 -192.405 156.863 -191.62 157.083 -190.547 C 157.352 -189.233 156.969 -188.037 156.311 -186.645 C 148.138 -169.358 136.968 -153.244 122.164 -137.382 C 113.892 -128.521 105.1 -120.526 96.031 -113.621 C 94.345 -112.338 94.305 -110.776 94.459 -109.56 C 94.875 -106.286 95.225 -102.942 95.565 -99.709 L 95.64 -98.992 C 95.822 -97.258 95.997 -95.523 96.17 -93.788 C 96.452 -90.999 96.732 -88.209 97.043 -85.423 L 97.065 -85.237 C 97.185 -84.205 97.15 -84.059 96.721 -83.818 C 96.411 -83.642 96.356 -83.61 95.69 -84.221 L 95.425 -84.459 C 94.41 -85.347 93.401 -86.245 92.393 -87.143 C 89.991 -89.283 87.507 -91.496 84.936 -93.535 C 82.452 -95.505 81.348 -97.556 81.36 -100.183 C 81.362 -100.553 81.366 -101.538 80.574 -101.959 C 79.787 -102.379 78.99 -101.836 78.727 -101.658 C 78.515 -101.514 78.294 -101.38 78.075 -101.247 L 77.692 -101.012 L 38.113 -76.279 C 37.118 -75.657 36.517 -75.282 36.509 -74.489 C 36.5 -73.693 37.132 -73.279 38.088 -72.653 L 49.984 -64.87 C 60.921 -57.716 71.859 -50.561 82.782 -43.386 C 84.024 -42.568 85.214 -42.496 86.64 -43.15 C 90.001 -44.693 93.443 -46.217 96.772 -47.691 L 104.994 -51.341 C 113.8 -55.253 122.607 -59.166 131.426 -63.048 C 132.879 -63.688 133.488 -64.788 133.236 -66.32 L 133.18 -66.66 C 132.817 -68.86 132.454 -71.06 132.124 -73.265 C 131.749 -75.771 131.385 -78.278 131.022 -80.786 L 130.379 -85.202 C 130.327 -85.563 130.353 -85.599 130.458 -85.661 C 130.527 -85.601 130.618 -85.507 130.684 -85.438 C 131.254 -84.851 131.76 -84.309 132.267 -83.767 C 133.256 -82.708 134.28 -81.612 135.375 -80.603 C 138.234 -77.969 139.538 -75.484 139.603 -72.546 C 139.613 -72.131 139.688 -71.737 139.753 -71.389 C 139.793 -71.18 139.834 -70.97 139.857 -70.76 C 139.928 -70.081 140.107 -69.255 140.856 -68.887 C 141.714 -68.464 142.654 -69.04 143.055 -69.285 C 151.914 -74.721 159.592 -80.492 166.528 -86.926 C 176.405 -96.088 183.94 -105.912 189.564 -116.958 C 189.917 -117.652 190.417 -118.245 191.093 -118.77 C 192.022 -119.491 193.205 -119.743 194.183 -119.42 C 194.911 -119.181 195.421 -118.661 195.62 -117.956 C 195.832 -117.206 195.533 -116.553 195.028 -115.551 C 188.72 -103.052 179.665 -91.742 167.338 -80.966 C 160.922 -75.355 153.826 -70.299 145.644 -65.508 C 141.328 -62.981 141.124 -62.547 141.995 -57.776 L 142.042 -57.514 C 142.684 -53.988 143.255 -50.383 143.808 -46.896 C 144.022 -45.547 144.237 -44.198 144.455 -42.85 L 144.476 -42.722 C 144.505 -42.545 144.549 -42.28 144.53 -42.188 C 144.525 -42.188 144.496 -42.165 144.433 -42.132 C 144.372 -42.101 144.334 -42.092 144.326 -42.092 C 144.251 -42.109 144.038 -42.298 143.91 -42.41 L 143.74 -42.558 C 143.201 -43.014 142.68 -43.494 142.159 -43.973 C 141.213 -44.843 140.237 -45.742 139.152 -46.508 C 136.438 -48.427 135.161 -50.712 135.133 -53.701 C 135.126 -54.428 135 -55.123 134.878 -55.795 L 134.782 -56.338 C 134.594 -57.466 134.469 -58.211 133.777 -58.592 C 133.082 -58.973 132.363 -58.667 131.37 -58.246 C 121.123 -53.888 110.881 -49.519 100.64 -45.149 L 97.404 -43.768 C 95.792 -43.08 94.182 -42.385 92.583 -41.695 L 89.507 -40.37 L 89.714 -39.418 C 89.739 -39.272 89.802 -38.886 90.184 -38.633 L 120.027 -19.092 C 120.917 -18.506 121.856 -18.409 122.978 -18.789 C 136.861 -23.478 150.749 -28.154 164.644 -32.805 C 166.229 -33.335 166.891 -34.466 166.561 -36.074 C 166.088 -38.373 165.634 -40.676 165.197 -42.981 C 164.71 -45.545 164.243 -48.113 163.789 -50.683 C 164.31 -50.187 164.784 -49.708 165.258 -49.23 C 167.547 -46.921 169.708 -44.74 169.896 -41.34 C 169.932 -40.682 170.082 -40.068 170.227 -39.475 C 170.346 -38.985 170.459 -38.522 170.498 -38.08 C 170.545 -37.513 170.689 -36.715 171.386 -36.323 C 172.155 -35.89 172.981 -36.3 173.476 -36.547 C 177.915 -38.758 181.251 -40.59 184.296 -42.485 C 197.997 -51.009 207.741 -60.963 214.084 -72.914 C 214.602 -73.887 215.142 -74.412 215.836 -74.614 C 217.326 -75.047 218.102 -74.943 218.705 -74.223 C 219.202 -73.63 219.154 -73.095 218.49 -71.834 C 214.392 -64.06 208.732 -57.014 201.187 -50.295 C 193.556 -43.5 184.557 -37.799 173.676 -32.866 C 172.299 -32.242 171.825 -31.306 172.138 -29.831 C 172.629 -27.536 173.1 -25.237 173.559 -22.937 C 173.978 -20.84 174.5 -18.231 174.948 -15.725 C 174.959 -15.661 174.973 -15.583 174.984 -15.512 C 174.943 -15.545 174.902 -15.581 174.868 -15.611 L 174.751 -15.71 C 174.218 -16.16 173.697 -16.624 173.176 -17.088 C 172.455 -17.731 171.708 -18.396 170.932 -19.017 C 170.017 -19.75 169.482 -20.699 169.249 -22.002 C 169.123 -22.705 168.981 -23.405 168.839 -24.105 C 168.613 -25.223 168.378 -26.377 168.224 -27.508 C 168.131 -28.182 167.935 -29.012 167.226 -29.455 C 166.512 -29.902 165.65 -29.707 164.98 -29.487 C 155.387 -26.338 145.782 -23.226 136.177 -20.114 L 127.65 -17.356 C 127.27 -17.253 126.478 -17.039 126.11 -16.068 L 125.825 -15.316 L 143.244 -3.917 L 143.302 -5.695 C 143.334 -6.649 143.362 -7.47 143.507 -7.661 C 143.647 -7.846 144.408 -8.07 145.29 -8.33 L 153.124 -10.629 C 154.413 -11.009 154.792 -10.948 154.904 -10.876 C 155.014 -10.808 155.233 -10.496 155.458 -9.181 C 156.628 -2.33 157.822 4.516 159.023 11.361 C 159.259 12.711 159.207 12.792 157.888 13.098 C 155.558 13.639 153.224 14.167 150.89 14.693 L 148.716 15.185 C 147.611 15.435 147.203 15.367 147.051 15.265 C 146.903 15.164 146.69 14.81 146.518 13.693 L 146.002 10.384 C 145.538 7.413 145.057 4.341 144.636 1.317 C 144.478 .18 143.953 -.609 142.935 -1.243 L 139.539 -3.356 C 134.006 -6.798 128.286 -10.356 122.695 -13.908 C 121.314 -14.785 120.055 -14.939 118.487 -14.426 C 110.106 -11.683 101.718 -8.96 93.33 -6.237 C 87.827 -4.451 82.324 -2.665 76.823 -.872 C 76.765 -.854 76.7 -.845 76.633 -.833 C 76.199 -.752 75.18 -.564 74.898 .67 L 74.714 1.472 L 79.942 3.801 C 84.625 5.888 89.304 7.973 93.989 10.043 C 94.174 10.125 94.367 10.241 94.561 10.356 C 95.249 10.762 96.289 11.376 97.306 10.792 C 98.38 10.179 98.019 8.999 97.845 8.432 C 97.789 8.247 97.694 7.937 97.706 7.832 C 97.762 7.328 97.75 6.843 97.737 6.374 L 97.728 5.979 C 97.724 5.668 97.828 5.58 98.032 5.518 L 98.895 5.253 C 101.162 4.561 103.505 3.843 105.828 3.243 C 106.098 3.173 106.315 3.171 106.409 3.236 C 106.506 3.304 106.626 3.54 106.671 3.998 C 107.283 10.212 107.959 16.717 108.684 23.333 C 108.768 24.101 108.58 24.278 107.971 24.419 C 105.58 24.971 103.19 25.521 100.792 26.038 C 99.757 26.261 99.562 26.126 99.553 26.121 C 99.533 26.105 99.352 25.937 99.279 24.791 C 99.171 23.092 99.03 21.395 98.888 19.698 C 98.794 18.579 98.702 17.459 98.618 16.34 C 98.492 14.654 97.659 13.544 95.996 12.845 C 87.247 9.171 78.456 5.391 71.01 2.177 C 69.639 1.583 68.425 1.838 67.419 2.165 C 62.685 3.702 57.949 5.233 53.212 6.764 C 49.182 8.066 45.153 9.369 41.124 10.675 C 40.076 11.015 39.034 11.377 37.882 11.778 L 33.351 13.339 L 37.591 14.805 C 38.492 15.117 39.273 15.388 40.056 15.654 L 58.654 21.953 C 59.268 22.161 60.197 22.475 60.918 21.905 C 61.645 21.335 61.557 20.333 61.528 20.004 C 61.481 19.478 61.459 18.949 61.438 18.421 C 61.421 18.015 61.404 17.609 61.377 17.205 C 61.316 16.29 61.555 16.125 62.077 15.987 C 63.253 15.676 64.421 15.331 65.59 14.986 C 66.334 14.766 67.078 14.546 67.824 14.335 C 68.06 14.269 68.188 14.275 68.221 14.285 C 68.196 14.282 68.238 14.389 68.251 14.624 L 68.557 20.266 C 68.771 24.237 68.986 28.208 69.217 32.179 C 69.265 33.008 69.036 33.314 68.232 33.491 C 67.402 33.673 66.574 33.861 65.746 34.049 C 64.739 34.278 63.732 34.507 62.723 34.725 C 62.397 34.796 62.275 34.765 62.255 34.759 C 62.259 34.752 62.167 34.613 62.122 34.147 C 61.869 31.483 61.782 29.06 61.855 26.74 C 61.904 25.167 61.216 24.207 59.691 23.716 C 50.932 20.903 42.039 17.999 33.438 15.19 L 31.764 14.643 C 31.165 14.447 30.242 14.228 29.155 14.582 C 19.551 17.71 9.943 20.827 .33 23.926 C -.98 24.348 -1.6 25.182 -1.621 26.552 C -1.65 28.527 -1.747 30.543 -1.839 32.492 L -1.92 34.21 C -1.943 34.717 -2.019 34.89 -2.042 34.93 C -2.053 34.917 -2.23 34.945 -2.692 34.85 C -3.422 34.699 -4.15 34.531 -4.877 34.363 C -5.919 34.123 -6.997 33.875 -8.077 33.677 C -8.854 33.536 -9.015 33.336 -8.979 32.556 C -8.923 31.341 -8.896 30.123 -8.87 28.904 C -8.824 26.766 -8.776 24.555 -8.557 22.417 C -8.446 21.348 -8.433 20.279 -8.419 19.246 C -8.399 17.768 -8.381 16.372 -8.103 14.993 C -8.039 14.672 -7.958 14.569 -7.945 14.555 C -7.947 14.557 -7.931 14.555 -7.904 14.555 C -7.851 14.555 -7.741 14.561 -7.556 14.608 C -6.991 14.755 -6.432 14.925 -5.873 15.095 C -5.539 15.196 -5.205 15.297 -4.87 15.394 C -4.387 15.533 -3.957 15.653 -3.574 15.759 C -2.478 16.065 -1.53 16.329 -1.348 16.532 C -1.239 16.653 -1.264 17.435 -1.285 18.124 C -1.302 18.642 -1.322 19.265 -1.319 20.022 C -1.316 20.825 -1.224 21.63 -.58 22.088 C .152 22.607 1.1 22.281 1.608 22.106 C 6.114 20.555 10.633 19.043 15.152 17.532 C 17.283 16.82 19.414 16.107 21.543 15.39 C 22.194 15.171 22.836 14.926 23.52 14.664 L 26.59 13.51 L 24.414 12.331 C 24.283 12.255 24.169 12.19 24.014 12.139 L 14.836 9.145 C 7.495 6.75 .154 4.356 -7.185 1.955 C -8.444 1.542 -9.522 1.884 -10.322 2.226 L -14.878 4.176 C -21.763 7.125 -28.882 10.173 -35.901 13.126 C -37.602 13.842 -38.367 14.944 -38.46 16.813 C -38.575 19.104 -38.829 21.44 -39.074 23.699 C -39.156 24.454 -39.237 25.208 -39.314 25.963 C -39.349 26.295 -39.439 26.442 -39.482 26.473 C -39.52 26.5 -39.655 26.53 -39.926 26.472 C -42.376 25.938 -45.155 25.333 -47.86 24.677 C -48.441 24.536 -48.642 24.251 -48.577 23.662 L -48.39 21.974 C -47.74 16.101 -47.09 10.227 -46.428 4.354 C -46.348 3.645 -46.214 3.505 -46.209 3.499 C -46.21 3.503 -46.183 3.488 -46.079 3.488 C -45.958 3.488 -45.74 3.508 -45.372 3.603 C -44.277 3.885 -43.166 4.226 -42.091 4.555 C -41.59 4.708 -41.089 4.862 -40.587 5.011 C -39.104 5.451 -38.128 5.741 -37.888 6.081 C -37.646 6.424 -37.703 7.499 -37.783 8.986 C -37.808 9.458 -37.861 10.441 -37.108 10.957 C -36.347 11.477 -35.411 11.054 -35.058 10.895 C -31.231 9.172 -27.397 7.466 -23.562 5.761 C -20.794 4.529 -18.025 3.298 -15.26 2.06 C -14.02 1.684 -14.042 .694 -14.107 .286 L -14.204 -.319 L -19.782 -2.123 C -32.326 -6.208 -44.871 -10.292 -57.413 -14.381 C -58.529 -14.744 -59.882 -15.185 -61.386 -14.233 C -67.309 -10.482 -73.359 -6.71 -79.211 -3.062 L -82.694 -.891 C -83.384 -.46 -84.202 .219 -84.4 1.662 C -84.836 4.839 -85.343 8.066 -85.833 11.187 L -86.278 14.036 C -86.451 15.153 -86.664 15.509 -86.812 15.611 C -86.91 15.678 -87.199 15.764 -88.036 15.586 C -91.102 14.932 -94.349 14.202 -97.962 13.351 C -98.827 13.147 -99.016 12.856 -98.842 11.997 C -98.455 10.087 -98.131 8.142 -97.818 6.259 C -97.681 5.436 -97.544 4.613 -97.402 3.79 L -96.789 .233 C -96.241 -2.956 -95.693 -6.144 -95.119 -9.328 C -94.937 -10.334 -94.742 -10.502 -94.704 -10.525 C -94.667 -10.549 -94.43 -10.651 -93.437 -10.372 C -91.702 -9.884 -89.973 -9.375 -88.244 -8.868 C -86.861 -8.461 -85.479 -8.055 -84.093 -7.659 C -83.128 -7.383 -83.077 -7.062 -83.109 -6.602 C -83.132 -6.278 -83.201 -5.292 -82.437 -4.848 C -81.671 -4.404 -80.875 -4.934 -80.492 -5.189 C -79.034 -6.163 -77.563 -7.118 -76.092 -8.072 L -63.879 -16.05 L -65.412 -16.835 C -65.531 -16.896 -65.628 -16.95 -65.712 -16.996 C -65.937 -17.119 -66.101 -17.202 -66.272 -17.259 C -71.272 -18.926 -76.371 -20.563 -81.302 -22.148 C -89.498 -24.781 -97.974 -27.504 -106.22 -30.43 C -106.47 -30.519 -107.231 -30.789 -107.921 -30.396 C -108.595 -30.013 -108.738 -29.295 -108.842 -28.77 C -109.18 -27.076 -109.532 -25.285 -109.839 -23.496 C -110.183 -21.497 -110.689 -20.062 -112.145 -19.085 C -113.036 -18.489 -113.802 -17.754 -114.542 -17.044 C -114.804 -16.794 -115.064 -16.545 -115.329 -16.302 C -115.464 -16.179 -115.674 -15.987 -115.806 -15.91 C -115.79 -15.987 -115.769 -16.072 -115.752 -16.14 C -115.727 -16.244 -115.702 -16.346 -115.682 -16.444 L -115.067 -19.51 C -114.382 -22.933 -113.674 -26.473 -112.889 -29.928 C -112.432 -31.94 -113.016 -33.119 -114.906 -33.994 C -130.34 -41.147 -142.122 -50.121 -150.924 -61.429 C -153.942 -65.305 -156.038 -68.714 -157.52 -72.156 C -157.864 -72.957 -157.843 -73.702 -157.461 -74.203 C -157.097 -74.681 -156.42 -74.89 -155.614 -74.777 C -154.269 -74.59 -153.387 -73.91 -152.839 -72.636 C -150.921 -68.185 -148.071 -63.924 -143.871 -59.23 C -136.101 -50.545 -126.549 -43.49 -114.669 -37.66 C -113.564 -37.118 -112.766 -36.725 -111.999 -37.14 C -111.227 -37.557 -111.114 -38.463 -110.972 -39.61 C -110.544 -43.058 -109.63 -46.934 -106.102 -49.55 C -105.769 -49.797 -105.536 -50.096 -105.33 -50.36 C -105.237 -50.479 -105.145 -50.601 -105.041 -50.708 C -104.927 -50.825 -104.814 -50.956 -104.702 -51.088 C -104.614 -51.193 -104.481 -51.349 -104.382 -51.441 C -104.395 -51.352 -104.417 -51.244 -104.434 -51.162 C -104.484 -50.911 -104.541 -50.628 -104.535 -50.321 C -104.535 -50.327 -104.554 -50.29 -104.568 -50.245 C -104.601 -50.139 -104.631 -50.032 -104.653 -49.925 L -105.476 -45.813 C -106.062 -42.88 -106.648 -39.948 -107.244 -37.018 C -107.677 -34.885 -106.509 -34.016 -105.453 -33.662 C -104.793 -33.441 -104.148 -33.18 -103.502 -32.92 C -102.837 -32.652 -102.172 -32.385 -101.494 -32.155 C -97.091 -30.667 -92.687 -29.184 -88.284 -27.7 C -79.739 -24.822 -71.194 -21.943 -62.66 -19.034 C -61.066 -18.489 -59.803 -18.645 -58.438 -19.549 C -53.531 -22.8 -48.601 -26.013 -43.669 -29.227 L -28.641 -39.021 L -28.767 -39.681 C -28.953 -40.649 -29.647 -40.91 -29.909 -41.008 L -49.74 -49.501 C -56.748 -52.498 -63.996 -55.597 -71.104 -58.687 C -71.552 -58.881 -71.927 -59.055 -72.243 -59.202 C -73.326 -59.704 -73.979 -60.005 -74.668 -59.64 C -75.356 -59.273 -75.469 -58.569 -75.656 -57.402 C -75.714 -57.04 -75.784 -56.604 -75.882 -56.087 C -76.008 -55.417 -76.071 -54.731 -76.132 -54.069 C -76.272 -52.547 -76.405 -51.11 -77.269 -50.074 C -79.131 -47.84 -81.47 -45.938 -83.731 -44.098 C -84.249 -43.676 -84.767 -43.255 -85.279 -42.83 C -85.308 -42.806 -85.333 -42.788 -85.354 -42.774 C -85.381 -42.841 -85.41 -42.948 -85.42 -43.099 C -85.446 -43.49 -85.426 -43.896 -85.363 -44.275 L -84.77 -47.839 C -84.073 -52.04 -83.352 -56.384 -82.584 -60.642 C -82.054 -63.589 -82.131 -64.206 -84.279 -65.365 C -84.51 -65.49 -84.774 -65.632 -85.074 -65.804 C -94.969 -71.473 -104.112 -78.306 -112.249 -86.113 C -118.178 -91.801 -123.317 -97.869 -127.521 -104.146 C -129.566 -107.197 -132.145 -111.275 -133.97 -115.761 C -134.418 -116.863 -134.338 -118.001 -133.763 -118.731 C -133.339 -119.269 -132.699 -119.502 -131.958 -119.39 C -130.156 -119.116 -128.975 -118.272 -128.348 -116.812 C -125.137 -109.343 -120.403 -102.28 -113.449 -94.582 C -105.641 -85.939 -96.24 -78.142 -85.508 -71.406 C -83.69 -70.266 -82.778 -69.691 -81.836 -70.117 C -80.903 -70.538 -80.732 -71.576 -80.393 -73.644 L -80.372 -73.77 C -80.322 -74.071 -80.279 -74.377 -80.236 -74.684 C -80.035 -76.108 -79.846 -77.454 -78.968 -78.427 C -77.339 -80.234 -75.632 -82.035 -73.982 -83.777 C -73.211 -84.59 -72.441 -85.402 -71.675 -86.219 C -71.421 -86.489 -71.366 -86.466 -71.278 -86.425 C -71.218 -86.398 -71.19 -86.376 -71.184 -86.37 C -71.186 -86.37 -71.144 -86.271 -71.203 -85.908 L -72.087 -80.361 C -72.687 -76.589 -73.288 -72.816 -73.907 -69.047 L -73.924 -68.946 C -74.463 -65.664 -74.237 -65.217 -71.227 -63.628 L -70.859 -63.43 C -70.501 -63.236 -70.143 -63.042 -69.773 -62.877 L -57.937 -57.602 C -47.1 -52.772 -36.264 -47.943 -25.437 -43.094 C -24.148 -42.516 -23.091 -42.6 -21.904 -43.378 C -7.16 -53.039 7.98 -62.92 23.096 -72.747 C 23.585 -73.064 24.404 -73.597 24.395 -74.483 C 24.386 -75.378 23.542 -75.904 23.089 -76.186 C 12.88 -82.544 2.686 -88.924 -7.51 -95.303 L -19.551 -102.835 C -20.192 -103.236 -21.07 -103.786 -21.873 -103.34 C -22.677 -102.894 -22.674 -101.861 -22.673 -101.106 C -22.667 -98.804 -23.488 -97.048 -25.257 -95.582 C -26.748 -94.346 -28.196 -93.028 -29.597 -91.753 C -30.309 -91.105 -31.021 -90.458 -31.741 -89.818 C -32.811 -88.867 -33.887 -87.922 -34.964 -86.978 L -36.926 -85.252 C -37.508 -84.74 -37.633 -84.759 -37.862 -84.852 C -38.111 -84.953 -38.275 -85.019 -38.233 -85.79 C -38.219 -86.058 -38.21 -86.327 -38.202 -86.597 C -38.188 -87.042 -38.176 -87.487 -38.127 -87.928 C -37.968 -89.371 -37.799 -90.812 -37.63 -92.254 C -37.411 -94.133 -37.191 -96.011 -36.991 -97.892 C -36.835 -99.359 -36.698 -100.83 -36.562 -102.3 C -36.293 -105.195 -36.016 -108.188 -35.584 -111.095 C -35.291 -113.069 -35.841 -114.369 -37.484 -115.584 C -41.583 -118.613 -45.847 -122.243 -50.904 -127.006 C -59.345 -134.956 -66.3 -142.385 -72.167 -149.721 C -81.638 -161.562 -88.81 -172.822 -94.093 -184.144 C -94.684 -185.413 -95.355 -186.85 -95.702 -188.341 C -96.091 -190.009 -95.534 -191.641 -94.315 -192.404 C -93.214 -193.093 -91.409 -192.77 -90.114 -191.657 C -89.155 -190.832 -88.42 -189.758 -87.73 -188.178 L -87.482 -187.61 C -86.526 -185.417 -85.538 -183.148 -84.391 -180.988 C -77.406 -167.833 -68.309 -155.21 -56.581 -142.401 C -50.57 -135.835 -43.972 -129.782 -37.738 -124.219 C -37.135 -123.679 -36.462 -123.077 -35.395 -122.85 L -34.185 -122.592 L -34.187 -123.829 C -34.188 -125.354 -33.634 -126.695 -32.494 -127.926 C -29.204 -131.474 -25.883 -134.994 -22.563 -138.514 L -20.446 -140.758 C -20.368 -140.841 -20.132 -141.092 -20.035 -141.126 C -19.64 -140.9 -19.532 -140.731 -19.527 -140.342 C -19.511 -139.222 -19.619 -138.121 -19.733 -136.954 L -19.818 -136.065 C -20.089 -133.072 -20.336 -130.076 -20.583 -127.08 C -20.846 -123.881 -21.11 -120.681 -21.403 -117.484 L -21.431 -117.19 C -21.878 -112.327 -21.815 -111.809 -18.165 -109.419 C -11.362 -104.964 -4.555 -100.516 2.252 -96.068 C 11.098 -90.287 19.945 -84.506 28.782 -78.711 C 29.981 -77.926 31.059 -77.933 32.283 -78.731 L 38.934 -83.087 C 51.661 -91.422 64.82 -100.041 77.833 -108.404 C 80.268 -109.969 80.596 -111.848 80.34 -114.189 C 80.05 -116.831 79.839 -119.533 79.635 -122.147 L 79.464 -124.311 C 79.339 -125.872 79.22 -127.434 79.102 -128.995 C 78.868 -132.075 78.625 -135.26 78.335 -138.392 C 78.263 -139.17 78.46 -139.443 78.876 -139.7 C 78.956 -139.749 78.993 -139.757 78.994 -139.757 C 78.976 -139.73 79.152 -139.521 79.256 -139.396 C 79.362 -139.271 79.466 -139.149 79.573 -139.041 C 81.907 -136.659 84.224 -134.26 86.542 -131.861 L 89.64 -128.658 C 91.526 -126.712 93.247 -124.938 93.187 -122.372 L 93.168 -121.561 L 93.958 -121.375 C 94.136 -121.333 94.3 -121.315 94.452 -121.315 M 154.333 -195.137 C 153.688 -195.137 153.016 -195.018 152.339 -194.778 C 150.321 -194.063 148.789 -192.612 147.785 -190.465 C 144.507 -183.466 140.605 -176.507 136.183 -169.783 C 131.696 -162.956 126.68 -156.275 121.276 -149.923 C 117.407 -145.376 113.346 -140.959 109.207 -136.796 C 104.158 -131.718 99.526 -127.482 95.063 -123.86 C 94.578 -126.438 92.768 -128.305 91.141 -129.983 L 87.98 -133.251 C 85.66 -135.653 83.338 -138.055 81 -140.441 C 80.929 -140.514 80.859 -140.599 80.787 -140.684 C 80.403 -141.144 79.378 -142.362 77.825 -141.401 C 76.694 -140.702 76.209 -139.658 76.343 -138.207 C 76.632 -135.092 76.874 -131.916 77.107 -128.844 C 77.226 -127.279 77.345 -125.714 77.47 -124.15 L 77.641 -121.991 C 77.846 -119.362 78.059 -116.644 78.352 -113.972 C 78.554 -112.126 78.371 -111.127 76.751 -110.087 C 63.732 -101.718 50.568 -93.097 37.838 -84.76 L 31.187 -80.405 C 30.629 -80.039 30.41 -80.036 29.879 -80.384 C 21.041 -86.18 12.193 -91.961 3.346 -97.742 C -3.46 -102.19 -10.267 -106.638 -17.069 -111.092 C -19.818 -112.892 -19.818 -112.892 -19.439 -117.007 L -19.412 -117.302 C -19.118 -120.504 -18.854 -123.71 -18.589 -126.916 C -18.343 -129.906 -18.097 -132.896 -17.826 -135.885 L -17.743 -136.759 C -17.628 -137.929 -17.51 -139.139 -17.527 -140.371 C -17.543 -141.491 -18.062 -142.329 -19.071 -142.862 C -20.501 -143.616 -21.519 -142.537 -21.902 -142.13 L -24.018 -139.886 C -27.342 -136.362 -30.666 -132.838 -33.96 -129.285 C -35.051 -128.108 -35.745 -126.8 -36.033 -125.382 C -36.133 -125.467 -36.235 -125.558 -36.342 -125.653 C -42.602 -131.239 -49.155 -137.251 -55.105 -143.751 C -66.718 -156.435 -75.72 -168.921 -82.624 -181.925 C -83.736 -184.017 -84.708 -186.25 -85.648 -188.409 L -85.897 -188.979 C -86.713 -190.848 -87.611 -192.141 -88.81 -193.172 C -90.772 -194.862 -93.533 -195.252 -95.376 -194.099 C -97.319 -192.883 -98.233 -190.387 -97.65 -187.887 C -97.285 -186.319 -96.67 -184.939 -95.905 -183.298 C -90.554 -171.831 -83.3 -160.438 -73.729 -148.472 C -67.803 -141.062 -60.785 -133.564 -52.275 -125.55 C -47.159 -120.731 -42.837 -117.053 -38.673 -113.976 C -37.628 -113.203 -37.379 -112.623 -37.562 -111.389 C -38.002 -108.428 -38.283 -105.407 -38.554 -102.485 C -38.689 -101.024 -38.825 -99.562 -38.98 -98.104 C -39.179 -96.229 -39.398 -94.358 -39.617 -92.486 C -39.786 -91.041 -39.956 -89.595 -40.116 -88.147 C -40.17 -87.653 -40.186 -87.156 -40.201 -86.658 C -40.209 -86.404 -40.217 -86.151 -40.23 -85.898 C -40.26 -85.354 -40.35 -83.698 -38.61 -82.997 C -37.131 -82.405 -36.101 -83.314 -35.604 -83.752 L -33.645 -85.475 C -32.565 -86.422 -31.486 -87.369 -30.413 -88.323 C -29.687 -88.968 -28.969 -89.621 -28.25 -90.274 C -26.867 -91.534 -25.436 -92.836 -23.981 -94.042 C -21.748 -95.894 -20.666 -98.206 -20.673 -101.111 L -20.673 -101.178 C -20.653 -101.166 -20.633 -101.153 -20.612 -101.14 L -8.571 -93.607 C 1.625 -87.228 11.822 -80.847 22.032 -74.489 C 22.045 -74.48 22.057 -74.473 22.069 -74.465 C 22.049 -74.452 22.028 -74.438 22.006 -74.423 C 6.889 -64.595 -8.254 -54.713 -23 -45.051 C -23.611 -44.652 -23.958 -44.624 -24.62 -44.919 C -35.448 -49.769 -46.285 -54.599 -57.123 -59.428 L -68.958 -64.704 C -69.281 -64.848 -69.593 -65.018 -69.905 -65.188 L -70.293 -65.396 C -71.245 -65.899 -71.997 -66.296 -72.127 -66.552 C -72.25 -66.796 -72.118 -67.602 -71.95 -68.622 L -71.934 -68.723 C -71.313 -72.496 -70.713 -76.271 -70.112 -80.047 L -69.228 -85.591 C -69.019 -86.896 -69.433 -87.79 -70.459 -88.25 C -71.119 -88.545 -72.118 -88.67 -73.134 -87.587 C -73.898 -86.773 -74.666 -85.963 -75.434 -85.152 C -77.092 -83.402 -78.808 -81.592 -80.454 -79.766 C -81.741 -78.339 -81.994 -76.545 -82.216 -74.962 C -82.257 -74.671 -82.298 -74.381 -82.345 -74.094 L -82.366 -73.968 C -82.486 -73.238 -82.609 -72.489 -82.724 -72.08 C -83.119 -72.269 -83.791 -72.69 -84.445 -73.101 C -95.021 -79.738 -104.28 -87.417 -111.964 -95.923 C -118.768 -103.453 -123.389 -110.341 -126.51 -117.602 C -127.407 -119.689 -129.187 -120.991 -131.657 -121.368 C -133.115 -121.589 -134.456 -121.081 -135.333 -119.97 C -136.354 -118.677 -136.541 -116.775 -135.822 -115.008 C -133.93 -110.354 -131.28 -106.164 -129.184 -103.033 C -124.898 -96.636 -119.667 -90.458 -113.634 -84.669 C -105.378 -76.75 -96.104 -69.818 -86.068 -64.069 C -85.752 -63.888 -85.473 -63.737 -85.229 -63.605 C -84.185 -63.042 -84.185 -63.042 -84.553 -60.997 C -85.322 -56.725 -86.044 -52.374 -86.743 -48.167 L -87.335 -44.605 C -87.425 -44.068 -87.452 -43.517 -87.415 -42.965 C -87.348 -41.971 -86.871 -41.19 -86.137 -40.875 C -85.452 -40.581 -84.674 -40.733 -84.003 -41.291 C -83.495 -41.711 -82.982 -42.129 -82.469 -42.546 C -80.133 -44.446 -77.719 -46.411 -75.733 -48.793 C -74.47 -50.307 -74.295 -52.208 -74.141 -53.886 C -74.081 -54.53 -74.025 -55.139 -73.916 -55.717 C -73.815 -56.255 -73.742 -56.708 -73.682 -57.086 C -73.653 -57.264 -73.623 -57.453 -73.593 -57.62 C -73.433 -57.549 -73.253 -57.466 -73.084 -57.387 C -72.756 -57.235 -72.366 -57.055 -71.901 -56.853 C -64.787 -53.761 -57.537 -50.661 -50.526 -47.663 L -31.532 -39.525 L -44.761 -30.902 C -49.697 -27.686 -54.632 -24.47 -59.542 -21.216 C -60.386 -20.657 -61.01 -20.585 -62.015 -20.926 C -70.551 -23.837 -79.098 -26.716 -87.645 -29.596 C -92.048 -31.079 -96.452 -32.563 -100.853 -34.05 C -101.495 -34.267 -102.125 -34.521 -102.755 -34.775 C -103.437 -35.05 -104.121 -35.325 -104.817 -35.558 C -105.291 -35.717 -105.447 -35.813 -105.284 -36.619 C -104.688 -39.552 -104.101 -42.486 -103.515 -45.42 L -102.692 -49.532 C -102.683 -49.575 -102.668 -49.617 -102.656 -49.66 C -102.603 -49.833 -102.53 -50.07 -102.535 -50.358 C -102.537 -50.447 -102.503 -50.618 -102.473 -50.768 C -102.365 -51.306 -102.112 -52.566 -103.37 -53.237 C -104.842 -54.022 -105.812 -52.871 -106.229 -52.38 C -106.31 -52.285 -106.389 -52.189 -106.472 -52.105 C -106.627 -51.945 -106.769 -51.768 -106.908 -51.589 C -107.047 -51.41 -107.179 -51.241 -107.294 -51.156 C -111.452 -48.073 -112.504 -43.498 -112.957 -39.856 C -112.979 -39.683 -113.017 -39.371 -113.062 -39.111 C -113.299 -39.215 -113.583 -39.355 -113.788 -39.456 C -125.432 -45.17 -134.785 -52.074 -142.381 -60.564 C -146.433 -65.092 -149.172 -69.18 -151.002 -73.428 C -151.82 -75.325 -153.319 -76.477 -155.337 -76.758 C -156.884 -76.976 -158.237 -76.484 -159.052 -75.415 C -159.884 -74.324 -159.995 -72.848 -159.356 -71.365 C -157.806 -67.763 -155.627 -64.215 -152.502 -60.2 C -143.499 -48.635 -131.477 -39.469 -115.747 -32.18 C -114.71 -31.699 -114.591 -31.462 -114.839 -30.371 C -115.63 -26.891 -116.341 -23.338 -117.028 -19.902 L -117.694 -16.619 C -117.822 -16.101 -118.161 -14.724 -116.729 -14.071 C -115.446 -13.485 -114.492 -14.357 -113.979 -14.827 C -113.703 -15.079 -113.431 -15.34 -113.159 -15.601 C -112.449 -16.281 -111.777 -16.924 -111.032 -17.424 C -108.869 -18.874 -108.233 -21.036 -107.869 -23.157 C -107.565 -24.922 -107.215 -26.699 -106.883 -28.367 C -106.874 -28.418 -106.862 -28.475 -106.85 -28.532 C -98.587 -25.601 -90.111 -22.878 -81.914 -20.244 C -77.354 -18.779 -72.651 -17.268 -68.02 -15.732 L -77.181 -9.75 C -78.502 -8.893 -79.823 -8.036 -81.135 -7.165 C -81.262 -8.098 -81.84 -9.095 -83.543 -9.582 C -84.924 -9.977 -86.302 -10.381 -87.68 -10.787 C -89.416 -11.297 -91.153 -11.807 -92.895 -12.297 C -93.832 -12.561 -94.907 -12.758 -95.765 -12.221 C -96.624 -11.684 -96.915 -10.636 -97.087 -9.683 C -97.662 -6.494 -98.211 -3.3 -98.76 -.105 L -99.373 3.449 C -99.516 4.276 -99.653 5.104 -99.791 5.931 C -100.101 7.796 -100.422 9.725 -100.802 11.599 C -101.193 13.531 -100.348 14.844 -98.42 15.298 C -94.793 16.151 -91.533 16.885 -88.453 17.542 C -87.612 17.721 -86.538 17.851 -85.677 17.258 C -84.769 16.631 -84.479 15.486 -84.301 14.342 L -83.856 11.497 C -83.365 8.367 -82.857 5.13 -82.418 1.934 C -82.346 1.405 -82.155 1.131 -81.635 .807 L -78.153 -1.365 C -72.298 -5.015 -66.245 -8.789 -60.315 -12.543 C -59.636 -12.974 -59.104 -12.83 -58.061 -12.488 C -45.49 -8.391 -32.945 -4.306 -20.401 -.222 L -17.301 .782 C -19.658 1.835 -22.017 2.884 -24.375 3.934 C -28.18 5.626 -31.985 7.318 -35.782 9.027 C -35.558 4.769 -35.892 4.318 -40.011 3.096 C -40.515 2.946 -41.01 2.794 -41.505 2.643 C -42.601 2.307 -43.734 1.959 -44.874 1.667 C -45.619 1.475 -46.574 1.323 -47.35 1.857 C -48.127 2.393 -48.328 3.354 -48.415 4.13 C -49.078 10.004 -49.728 15.879 -50.378 21.754 L -50.565 23.442 C -50.74 25.025 -49.884 26.243 -48.332 26.62 C -45.604 27.283 -42.813 27.89 -40.351 28.426 C -39.346 28.646 -38.685 28.365 -38.308 28.092 C -37.921 27.812 -37.436 27.25 -37.325 26.167 C -37.248 25.416 -37.167 24.666 -37.085 23.915 C -36.837 21.627 -36.581 19.262 -36.463 16.913 C -36.408 15.819 -36.108 15.383 -35.126 14.97 C -28.101 12.014 -20.979 8.964 -14.091 6.015 L -9.535 4.064 C -8.797 3.75 -8.313 3.69 -7.807 3.855 C -.467 6.257 6.875 8.652 14.216 11.046 L 21.301 13.358 C 21.169 13.405 21.038 13.45 20.906 13.495 C 18.777 14.211 16.647 14.923 14.518 15.636 C 9.993 17.149 5.468 18.662 .957 20.215 C .851 20.252 .762 20.28 .688 20.301 C .685 20.224 .682 20.129 .681 20.015 C .679 19.286 .698 18.686 .713 18.187 C .812 15.089 .382 14.786 -3.038 13.833 C -3.416 13.728 -3.839 13.609 -4.315 13.472 C -4.642 13.378 -4.967 13.279 -5.292 13.181 C -5.877 13.003 -6.463 12.826 -7.054 12.673 C -7.83 12.471 -8.489 12.536 -9.012 12.863 C -9.553 13.201 -9.896 13.769 -10.064 14.597 C -10.378 16.159 -10.399 17.715 -10.418 19.22 C -10.432 20.254 -10.445 21.232 -10.546 22.213 C -10.774 24.431 -10.823 26.683 -10.87 28.861 C -10.896 30.063 -10.922 31.265 -10.977 32.464 C -11.059 34.252 -10.204 35.322 -8.437 35.645 C -7.401 35.833 -6.347 36.077 -5.327 36.312 C -4.584 36.483 -3.842 36.654 -3.097 36.809 C -2.454 36.941 -1.514 37.055 -.798 36.498 C -.084 35.943 .045 35.032 .078 34.3 L .158 32.587 C .252 30.622 .349 28.59 .379 26.583 C .387 26.078 .456 25.986 .943 25.829 C 10.559 22.73 20.168 19.612 29.774 16.483 C 30.193 16.348 30.59 16.365 31.144 16.544 L 32.817 17.091 C 41.42 19.9 50.316 22.806 59.08 25.621 C 59.787 25.848 59.875 26.039 59.855 26.678 C 59.78 29.082 59.87 31.587 60.131 34.336 C 60.224 35.31 60.537 35.979 61.085 36.38 C 61.614 36.767 62.289 36.864 63.145 36.68 C 64.161 36.46 65.174 36.23 66.189 36 C 67.012 35.813 67.835 35.625 68.661 35.444 C 70.437 35.054 71.32 33.885 71.213 32.063 C 70.983 28.095 70.768 24.126 70.554 20.158 L 70.248 14.515 C 70.19 13.451 69.733 12.91 69.36 12.644 C 68.985 12.375 68.317 12.118 67.281 12.411 C 66.527 12.624 65.775 12.846 65.024 13.067 C 63.874 13.407 62.723 13.747 61.565 14.054 C 59.999 14.468 59.264 15.573 59.381 17.337 C 59.408 17.726 59.423 18.115 59.44 18.504 C 59.462 19.049 59.485 19.593 59.532 20.136 C 59.437 20.107 59.35 20.077 59.296 20.059 L 40.699 13.76 C 40.296 13.624 39.894 13.486 39.477 13.341 C 40.256 13.072 40.997 12.819 41.741 12.578 C 45.769 11.271 49.798 9.969 53.828 8.667 C 58.565 7.136 63.301 5.604 68.037 4.067 C 68.849 3.805 69.498 3.703 70.217 4.013 C 77.667 7.229 86.464 11.012 95.221 14.689 C 96.187 15.095 96.554 15.566 96.624 16.488 C 96.708 17.614 96.801 18.739 96.895 19.864 C 97.036 21.548 97.175 23.232 97.283 24.918 C 97.352 26.006 97.53 27.098 98.347 27.716 C 99.159 28.33 100.25 28.2 101.213 27.993 C 103.622 27.474 106.021 26.922 108.42 26.367 C 110.06 25.989 110.86 24.833 110.672 23.115 C 109.949 16.507 109.272 10.009 108.662 3.803 C 108.561 2.782 108.189 2.04 107.554 1.596 C 107.141 1.307 106.422 1.021 105.326 1.307 C 102.962 1.918 100.597 2.642 98.31 3.341 L 97.448 3.604 C 96.357 3.938 95.714 4.834 95.728 6.004 L 95.738 6.427 C 95.749 6.846 95.759 7.242 95.717 7.608 C 95.67 8.038 95.765 8.45 95.869 8.805 C 95.765 8.744 95.662 8.683 95.577 8.633 C 95.312 8.477 95.049 8.325 94.797 8.214 C 90.115 6.144 85.438 4.06 80.756 1.974 L 78.131 .805 C 83.403 -.912 88.675 -2.624 93.948 -4.335 C 102.336 -7.059 110.726 -9.782 119.11 -12.526 C 120.098 -12.849 120.757 -12.769 121.623 -12.219 C 127.222 -8.663 132.947 -5.102 138.482 -1.658 L 141.878 .455 C 142.391 .774 142.58 1.051 142.656 1.593 C 143.079 4.634 143.56 7.714 144.027 10.693 L 144.542 13.998 C 144.718 15.146 145.008 16.293 145.926 16.919 C 146.845 17.544 148.024 17.393 149.158 17.135 L 151.331 16.644 C 153.668 16.116 156.006 15.588 158.341 15.046 C 160.693 14.5 161.412 13.408 160.994 11.016 C 159.792 4.173 158.599 -2.67 157.429 -9.518 C 157.176 -10.997 156.843 -12.024 155.962 -12.573 C 155.081 -13.124 153.963 -12.96 152.559 -12.548 L 144.724 -10.248 C 142.358 -9.551 141.667 -9.168 141.426 -7.497 L 128.942 -15.667 L 136.793 -18.211 C 146.401 -21.324 156.008 -24.437 165.603 -27.587 C 165.879 -27.678 166.046 -27.71 166.14 -27.722 C 166.168 -27.637 166.208 -27.488 166.242 -27.236 C 166.406 -26.043 166.646 -24.856 166.878 -23.708 C 167.018 -23.023 167.157 -22.337 167.28 -21.65 C 167.599 -19.867 168.384 -18.496 169.682 -17.457 C 170.417 -16.867 171.143 -16.22 171.845 -15.595 C 172.38 -15.118 172.916 -14.642 173.462 -14.181 L 173.558 -14.099 C 173.926 -13.78 174.79 -13.033 175.958 -13.634 C 177.235 -14.292 177.006 -15.575 176.92 -16.058 C 176.465 -18.604 175.941 -21.223 175.52 -23.329 C 175.059 -25.638 174.586 -27.945 174.094 -30.248 C 173.98 -30.785 173.976 -30.806 174.502 -31.044 C 185.57 -36.063 194.733 -41.871 202.517 -48.801 C 210.245 -55.682 216.047 -62.912 220.259 -70.902 C 220.74 -71.815 221.741 -73.715 220.237 -75.509 C 218.569 -77.495 216.263 -76.821 215.278 -76.534 C 214.055 -76.178 213.087 -75.301 212.319 -73.852 C 206.144 -62.221 196.632 -52.516 183.24 -44.183 C 180.25 -42.322 176.963 -40.519 172.583 -38.337 C 172.549 -38.32 172.517 -38.304 172.487 -38.289 C 172.433 -38.872 172.299 -39.42 172.169 -39.95 C 172.041 -40.478 171.918 -40.977 171.892 -41.449 C 171.664 -45.608 169.129 -48.165 166.679 -50.638 C 166.154 -51.167 165.628 -51.697 165.128 -52.243 C 164.552 -52.868 163.723 -53.072 162.911 -52.792 C 162.255 -52.566 161.53 -51.982 161.792 -50.483 C 162.256 -47.855 162.735 -45.23 163.232 -42.609 C 163.671 -40.293 164.127 -37.98 164.602 -35.672 C 164.72 -35.096 164.677 -34.925 164.009 -34.702 C 150.112 -30.049 136.222 -25.374 122.337 -20.684 C 121.737 -20.481 121.436 -20.56 121.124 -20.765 L 92.524 -39.492 L 93.375 -39.859 C 94.972 -40.548 96.579 -41.241 98.189 -41.928 L 101.425 -43.309 C 111.666 -47.679 121.906 -52.048 132.153 -56.405 C 132.307 -56.471 132.515 -56.559 132.701 -56.632 C 132.738 -56.439 132.775 -56.211 132.809 -56.009 L 132.911 -55.437 C 133.022 -54.821 133.128 -54.238 133.133 -53.682 C 133.167 -50.046 134.758 -47.166 137.998 -44.875 C 138.977 -44.183 139.865 -43.366 140.805 -42.501 C 141.346 -42.003 141.887 -41.506 142.447 -41.032 L 142.589 -40.908 C 143.049 -40.504 144.008 -39.665 145.347 -40.354 C 146.777 -41.089 146.555 -42.415 146.449 -43.052 L 146.429 -43.169 C 146.211 -44.516 145.998 -45.863 145.784 -47.21 C 145.229 -50.708 144.656 -54.324 144.009 -57.873 L 143.961 -58.135 C 143.617 -60.023 143.427 -61.064 143.687 -61.619 C 143.949 -62.179 144.884 -62.746 146.654 -63.782 C 154.946 -68.638 162.143 -73.766 168.655 -79.46 C 181.178 -90.409 190.387 -101.917 196.807 -114.639 C 197.333 -115.68 197.978 -116.961 197.545 -118.499 C 197.166 -119.845 196.167 -120.873 194.808 -121.32 C 193.184 -121.853 191.335 -121.491 189.866 -120.349 C 188.965 -119.649 188.264 -118.813 187.782 -117.865 C 182.266 -107.032 174.869 -97.392 165.168 -88.392 C 158.33 -82.048 150.754 -76.356 142.008 -70.99 C 141.952 -70.955 141.9 -70.924 141.854 -70.898 C 141.851 -70.92 141.848 -70.944 141.845 -70.969 C 141.818 -71.233 141.769 -71.498 141.718 -71.763 C 141.662 -72.061 141.608 -72.342 141.603 -72.591 C 141.5 -77.161 138.773 -80.191 136.73 -82.073 C 135.69 -83.032 134.693 -84.099 133.729 -85.132 C 133.213 -85.684 132.698 -86.235 132.172 -86.776 C 131.733 -87.231 130.816 -88.18 129.472 -87.401 C 128.15 -86.633 128.338 -85.338 128.401 -84.913 L 129.042 -80.499 C 129.407 -77.988 129.77 -75.478 130.145 -72.969 C 130.477 -70.754 130.842 -68.544 131.207 -66.334 L 131.263 -65.995 C 131.36 -65.402 131.285 -65.171 130.621 -64.878 C 121.799 -60.996 112.99 -57.082 104.182 -53.168 L 95.962 -49.52 C 92.627 -48.043 89.179 -46.516 85.806 -44.968 C 84.999 -44.598 84.548 -44.617 83.879 -45.058 C 72.956 -52.233 62.017 -59.389 51.079 -66.544 L 39.184 -74.327 C 39.12 -74.369 39.049 -74.415 38.979 -74.461 C 39.043 -74.502 39.109 -74.542 39.172 -74.583 L 79.113 -99.537 C 79.199 -99.589 79.284 -99.641 79.369 -99.694 C 79.492 -96.668 80.876 -94.203 83.694 -91.968 C 86.219 -89.965 88.681 -87.771 91.062 -85.65 C 92.076 -84.747 93.088 -83.845 94.11 -82.952 L 94.339 -82.746 C 94.945 -82.19 96.076 -81.16 97.702 -82.075 C 99.339 -82.997 99.167 -84.484 99.051 -85.469 L 99.032 -85.646 C 98.72 -88.424 98.441 -91.206 98.161 -93.988 C 97.986 -95.726 97.811 -97.464 97.628 -99.201 L 97.553 -99.918 C 97.213 -103.162 96.861 -106.516 96.444 -109.811 C 96.304 -110.91 96.506 -111.469 97.242 -112.029 C 106.401 -119.003 115.278 -127.074 123.626 -136.017 C 138.574 -152.032 149.857 -168.313 158.12 -185.79 C 158.836 -187.308 159.445 -188.983 159.042 -190.95 C 158.707 -192.582 157.843 -193.864 156.611 -194.559 C 155.93 -194.944 155.154 -195.137 154.333 -195.137 " fill="#18acb5"/>
</g>
<clipPath id="cp3">
<path transform="matrix(1,0,0,-1,0,595.276)" d="M 0 595.276 L 595.276 595.276 L 595.276 0 L 0 0 Z "/>
</clipPath>
<g clip-path="url(#cp3)">
</g>
<path transform="matrix(1,0,0,-1,378.1324,448.41743)" d="M 0 0 L -9.882 0 L -9.882 84.651 L 46.453 84.651 L 46.453 75.614 L 0 75.614 L 0 44.284 L 37.054 44.284 L 37.054 35.548 L 0 35.548 Z " fill="#14322F"/>
<clipPath id="cp4">
<path transform="matrix(1,0,0,-1,0,595.276)" d="M 0 595.276 L 595.276 595.276 L 595.276 0 L 0 0 Z "/>
</clipPath>
<g clip-path="url(#cp4)">
<path transform="matrix(1,0,0,-1,211.7559,405.7719)" d="M 0 0 L 0 -8.736 L 21.535 -8.736 L 21.535 -29.632 C 18.723 -31.238 15.639 -32.494 12.286 -33.397 C 8.932 -34.301 5.668 -34.753 2.496 -34.753 C -3.529 -34.753 -9.113 -33.216 -14.254 -30.144 C -19.396 -27.071 -23.483 -22.894 -26.515 -17.611 C -29.548 -12.33 -31.064 -6.535 -31.064 -.229 C -31.064 6.037 -29.548 11.79 -26.515 17.033 C -23.483 22.274 -19.396 26.41 -14.254 29.444 C -9.113 32.477 -3.529 33.993 2.496 33.993 C 6.672 33.993 10.699 33.219 14.576 31.673 C 18.452 30.127 21.916 28.028 24.969 25.377 L 30.874 32.908 C 27.098 36.242 22.759 38.843 17.859 40.71 C 12.958 42.579 7.837 43.513 2.496 43.513 C -5.498 43.513 -12.818 41.563 -19.466 37.669 C -26.114 33.772 -31.375 28.48 -35.251 21.793 C -39.128 15.104 -41.065 7.764 -41.065 -.229 C -41.065 -8.223 -39.128 -15.573 -35.251 -22.28 C -31.375 -28.989 -26.114 -34.301 -19.466 -38.218 C -12.818 -42.134 -5.498 -44.092 2.496 -44.092 C 7.596 -44.092 12.637 -43.248 17.619 -41.561 C 22.599 -39.874 27.038 -37.524 30.934 -34.512 L 30.934 -8.736 L 30.934 -4.507 L 30.934 0 Z " fill="#14322F"/>
<path transform="matrix(1,0,0,-1,283.8409,435.3852)" d="M 0 0 C -5.121 3.013 -9.188 7.119 -12.201 12.321 C -15.213 17.522 -16.72 23.276 -16.72 29.583 C -16.72 35.889 -15.213 41.663 -12.201 46.905 C -9.188 52.146 -5.121 56.273 0 59.286 C 5.121 62.299 10.714 63.805 16.78 63.805 C 22.844 63.805 28.448 62.299 33.589 59.286 C 38.73 56.273 42.808 52.146 45.82 46.905 C 48.833 41.663 50.339 35.889 50.339 29.583 C 50.339 23.276 48.833 17.522 45.82 12.321 C 42.808 7.119 38.73 3.013 33.589 0 C 28.448 -3.013 22.844 -4.52 16.78 -4.52 C 10.714 -4.52 5.121 -3.013 0 0 M 44.232 -4.52 C 48.374 -1.192 51.825 2.824 54.556 7.562 C 58.413 14.249 60.34 21.609 60.34 29.643 C 60.34 37.676 58.413 45.037 54.556 51.725 C 50.701 58.412 45.438 63.685 38.771 67.541 C 32.103 71.396 24.772 73.324 16.78 73.324 C 8.786 73.324 1.466 71.396 -5.182 67.541 C -11.83 63.685 -17.091 58.412 -20.967 51.725 C -24.844 45.037 -26.781 37.676 -26.781 29.643 C -26.781 21.609 -24.844 14.249 -20.967 7.562 C -17.091 .873 -11.83 -4.408 -5.182 -8.285 C 1.466 -12.161 8.786 -14.099 16.78 -14.099 L 69.245 -14.099 L 69.245 -4.52 Z " fill="#14322F"/>
<path transform="matrix(1,0,0,-1,206.586,478.476)" d="M 0 0 C .832 0 1.562 .163 2.19 .488 C 2.819 .812 3.304 1.274 3.646 1.872 C 3.989 2.471 4.16 3.168 4.16 3.966 C 4.16 4.754 3.989 5.441 3.646 6.026 C 3.304 6.611 2.819 7.063 2.19 7.385 C 1.562 7.705 .832 7.865 0 7.865 L -4.225 7.865 L -4.225 0 Z M -6.357 -8.437 L -6.357 9.828 L .143 9.828 C 1.382 9.828 2.468 9.586 3.399 9.101 C 4.331 8.615 5.048 7.931 5.551 7.047 C 6.054 6.162 6.305 5.144 6.305 3.991 C 6.305 2.796 6.058 1.749 5.564 .852 C 5.07 -.045 4.359 -.738 3.432 -1.228 C 2.504 -1.718 1.413 -1.963 .156 -1.963 L -4.225 -1.963 L -4.225 -8.437 Z " fill="#14322F"/>
<path transform="matrix(1,0,0,-1,223.5772,478.4887)" d="M 0 0 L 4.797 0 C 5.62 0 6.342 .163 6.961 .487 C 7.581 .812 8.06 1.274 8.398 1.872 C 8.736 2.47 8.905 3.163 8.905 3.952 C 8.905 4.758 8.736 5.456 8.398 6.045 C 8.06 6.635 7.581 7.087 6.961 7.403 C 6.342 7.72 5.62 7.878 4.797 7.878 L 0 7.878 Z M 11.128 -8.424 L 8.723 -8.424 L 5.707 -1.833 C 5.308 -1.885 4.892 -1.911 4.459 -1.911 L 0 -1.911 L 0 -8.424 L -2.132 -8.424 L -2.132 9.841 L 4.979 9.841 C 6.201 9.841 7.271 9.599 8.19 9.113 C 9.108 8.628 9.819 7.941 10.322 7.053 C 10.825 6.164 11.076 5.135 11.076 3.965 C 11.076 2.691 10.784 1.61 10.199 .722 C 9.614 -.167 8.801 -.836 7.761 -1.287 Z " fill="#14322F"/>
<path transform="matrix(1,0,0,-1,255.0762,484.1694)" d="M 0 0 C 1.109 .649 1.989 1.536 2.639 2.658 C 3.289 3.78 3.614 5.022 3.614 6.383 C 3.614 7.743 3.289 8.989 2.639 10.12 C 1.989 11.251 1.109 12.142 0 12.792 C -1.11 13.441 -2.319 13.767 -3.627 13.767 C -4.936 13.767 -6.143 13.441 -7.248 12.792 C -8.353 12.142 -9.23 11.251 -9.88 10.12 C -10.53 8.989 -10.855 7.743 -10.855 6.383 C -10.855 5.022 -10.53 3.78 -9.88 2.658 C -9.23 1.536 -8.353 .649 -7.248 0 C -6.143 -.65 -4.936 -.976 -3.627 -.976 C -2.319 -.976 -1.11 -.65 0 0 M -8.366 -1.788 C -9.8 -.951 -10.936 .188 -11.771 1.631 C -12.608 3.074 -13.026 4.662 -13.026 6.396 C -13.026 8.129 -12.608 9.718 -11.771 11.16 C -10.936 12.604 -9.8 13.741 -8.366 14.573 C -6.932 15.405 -5.352 15.821 -3.627 15.821 C -1.903 15.821 -.321 15.405 1.118 14.573 C 2.556 13.741 3.692 12.604 4.524 11.16 C 5.356 9.718 5.772 8.129 5.772 6.396 C 5.772 4.662 5.356 3.074 4.524 1.631 C 3.692 .188 2.556 -.951 1.118 -1.788 C -.321 -2.624 -1.903 -3.042 -3.627 -3.042 C -5.352 -3.042 -6.932 -2.624 -8.366 -1.788 " fill="#14322F"/>
<path transform="matrix(1,0,0,-1,274.9146,486.9125)" d="M 0 0 L -2.132 0 L -2.132 16.25 L -8.034 16.25 L -8.034 18.265 L 5.928 18.265 L 5.928 16.25 L 0 16.25 Z " fill="#14322F"/>
<path transform="matrix(1,0,0,-1,302.1753,486.9125)" d="M 0 0 L -12.935 0 L -12.935 18.265 L -.182 18.265 L -.182 16.25 L -10.803 16.25 L -10.803 10.335 L -2.145 10.335 L -2.145 8.359 L -10.803 8.359 L -10.803 2.015 L 0 2.015 Z " fill="#14322F"/>
<path transform="matrix(1,0,0,-1,313.4087,486.9125)" d="M 0 0 L -2.133 0 L -2.133 18.265 L .064 18.265 L 11.063 3.471 L 11.063 18.265 L 13.194 18.265 L 13.194 0 L 11.089 0 L 0 14.911 Z " fill="#14322F"/>
<path transform="matrix(1,0,0,-1,338.0884,486.3276)" d="M 0 0 C -1.27 .555 -2.32 1.348 -3.152 2.379 L -1.749 3.731 C -1.064 2.907 -.206 2.275 .825 1.833 C 1.856 1.391 2.918 1.17 4.011 1.17 C 4.834 1.17 5.575 1.296 6.233 1.547 C 6.892 1.798 7.41 2.169 7.787 2.658 C 8.164 3.148 8.353 3.744 8.353 4.446 C 8.353 5.131 8.146 5.686 7.735 6.11 C 7.323 6.534 6.786 6.875 6.123 7.131 C 5.46 7.386 4.539 7.67 3.36 7.982 C 2.217 8.276 1.248 8.598 .455 8.944 C -.338 9.291 -1.008 9.796 -1.554 10.459 C -2.1 11.121 -2.372 11.978 -2.372 13.026 C -2.372 13.979 -2.11 14.826 -1.586 15.567 C -1.062 16.309 -.327 16.887 .617 17.303 C 1.562 17.719 2.649 17.927 3.881 17.927 C 5.042 17.927 6.16 17.726 7.234 17.322 C 8.309 16.92 9.24 16.35 10.029 15.613 L 8.756 14.144 C 8.148 14.698 7.419 15.139 6.565 15.464 C 5.711 15.788 4.847 15.951 3.972 15.951 C 3.2 15.951 2.494 15.832 1.853 15.594 C 1.211 15.355 .702 15.009 .325 14.554 C -.052 14.099 -.24 13.567 -.24 12.961 C -.24 12.328 -.046 11.817 .345 11.427 C .734 11.037 1.224 10.731 1.813 10.511 C 2.402 10.289 3.248 10.031 4.349 9.737 C 5.675 9.355 6.76 8.975 7.604 8.593 C 8.45 8.212 9.146 7.689 9.691 7.026 C 10.237 6.363 10.511 5.517 10.511 4.485 C 10.511 3.376 10.225 2.42 9.652 1.618 C 9.08 .816 8.303 .208 7.319 -.208 C 6.335 -.624 5.232 -.832 4.011 -.832 C 2.606 -.832 1.27 -.555 0 0 " fill="#14322F"/>
<path transform="matrix(1,0,0,-1,359.7915,467.101)" d="M 0 0 C .164 .763 .453 1.315 .864 1.658 C 1.276 2 1.703 2.172 2.145 2.172 C 2.388 2.172 2.61 2.135 2.814 2.061 C 3.018 1.987 3.28 1.877 3.601 1.729 C 3.844 1.608 4.047 1.517 4.212 1.456 C 4.377 1.396 4.541 1.365 4.706 1.365 C 4.94 1.365 5.117 1.424 5.239 1.541 C 5.36 1.658 5.46 1.894 5.538 2.249 L 6.851 1.872 C 6.687 1.109 6.4 .558 5.993 .215 C 5.586 -.128 5.161 -.299 4.719 -.299 C 4.477 -.299 4.251 -.262 4.043 -.188 C 3.835 -.114 3.57 -.004 3.25 .144 C 3.016 .265 2.816 .355 2.652 .416 C 2.487 .477 2.322 .508 2.158 .508 C 1.933 .508 1.753 .446 1.618 .325 C 1.484 .204 1.382 -.03 1.313 -.377 Z M 3.38 -4.42 L -.182 -13.585 L 7.163 -13.585 L 3.601 -4.42 L 3.497 -4.095 Z M 11.817 -19.812 L 9.594 -19.812 L 7.93 -15.521 L -.936 -15.521 L -2.6 -19.812 L -4.823 -19.812 L 2.522 -1.533 L 4.472 -1.533 Z " fill="#14322F"/>
<path transform="matrix(1,0,0,-1,390.5747,484.1694)" d="M 0 0 C 1.109 .649 1.989 1.536 2.639 2.658 C 3.289 3.78 3.614 5.022 3.614 6.383 C 3.614 7.743 3.289 8.989 2.639 10.12 C 1.989 11.251 1.109 12.142 0 12.792 C -1.109 13.441 -2.318 13.767 -3.627 13.767 C -4.936 13.767 -6.143 13.441 -7.248 12.792 C -8.353 12.142 -9.23 11.251 -9.88 10.12 C -10.53 8.989 -10.855 7.743 -10.855 6.383 C -10.855 5.022 -10.53 3.78 -9.88 2.658 C -9.23 1.536 -8.353 .649 -7.248 0 C -6.143 -.65 -4.936 -.976 -3.627 -.976 C -2.318 -.976 -1.109 -.65 0 0 M -8.365 -1.788 C -9.8 -.951 -10.936 .188 -11.771 1.631 C -12.608 3.074 -13.026 4.662 -13.026 6.396 C -13.026 8.129 -12.608 9.718 -11.771 11.16 C -10.936 12.604 -9.8 13.741 -8.365 14.573 C -6.932 15.405 -5.352 15.821 -3.627 15.821 C -1.902 15.821 -.321 15.405 1.118 14.573 C 2.557 13.741 3.691 12.604 4.523 11.16 C 5.355 9.718 5.771 8.129 5.771 6.396 C 5.771 4.662 5.355 3.074 4.523 1.631 C 3.691 .188 2.557 -.951 1.118 -1.788 C -.321 -2.624 -1.902 -3.042 -3.627 -3.042 C -5.352 -3.042 -6.932 -2.624 -8.365 -1.788 " fill="#14322F"/>
</g>
<g id="Layer-1" data-name="tipografia verde">
</g>
<clipPath id="cp5">
<path transform="matrix(1,0,0,-1,0,595.276)" d="M 0 595.276 L 595.276 595.276 L 595.276 0 L 0 0 Z "/>
</clipPath>
<g clip-path="url(#cp5)">
</g>
</g>
</g>
</svg>
